<svg width="20" height="20" viewBox="0 0 20 20" fill="none" xmlns="http://www.w3.org/2000/svg">
<path d="M1.73547 7.68163H8.67747V2.0572C8.67747 1.96965 8.64039 1.88939 8.56622 1.81642C8.49204 1.74348 8.41044 1.707 8.32143 1.707H2.09151C2.0025 1.707 1.9209 1.74348 1.84672 1.81642C1.77255 1.88939 1.73547 1.96965 1.73547 2.0572V7.68163ZM1.73547 17.6393H8.67747V9.38861H1.73547V17.6393ZM9.37161 19.3463H1.0411C0.746062 19.3463 0.498792 19.2477 0.299287 19.0505C0.0997623 18.8534 0 18.6091 0 18.3177V2.0572C0 1.48235 0.202475 0.995767 0.607425 0.59746C1.01237 0.199153 1.50707 0 2.09151 0H8.32143C8.90587 0 9.40057 0.199153 9.80552 0.59746C10.2105 0.995767 10.4129 1.48235 10.4129 2.0572V9.45427H11.7034C12.2319 9.45427 12.6829 9.638 13.0565 10.0055C13.4301 10.3729 13.6169 10.8166 13.6169 11.3364V16.5888C13.6169 16.955 13.7686 17.28 14.0719 17.5638C14.3753 17.8475 14.7161 17.9894 15.0943 17.9894C15.4948 17.9894 15.8419 17.8475 16.1356 17.5638C16.4293 17.28 16.5762 16.955 16.5762 16.5888V6.19342H16.2313C15.935 6.19342 15.6866 6.09485 15.4862 5.8977C15.2858 5.70056 15.1856 5.45627 15.1856 5.16485V3.63836C15.1856 3.50267 15.2379 3.38395 15.3424 3.28219C15.447 3.18043 15.569 3.12955 15.7084 3.12955V2.14474C15.7084 2.01051 15.7596 1.89306 15.8619 1.79238C15.9643 1.69172 16.0837 1.64139 16.2202 1.64139C16.3566 1.64139 16.4761 1.69172 16.5784 1.79238C16.6807 1.89306 16.7319 2.01051 16.7319 2.14474V3.12955H17.7999V2.14474C17.7999 2.01051 17.8511 1.89306 17.9534 1.79238C18.0558 1.69172 18.1752 1.64139 18.3117 1.64139C18.4481 1.64139 18.5675 1.69172 18.6699 1.79238C18.7722 1.89306 18.8234 2.01051 18.8234 2.14474V3.12955C18.9628 3.12955 19.0848 3.18043 19.1894 3.28219C19.294 3.38395 19.3463 3.50267 19.3463 3.63836V5.16485C19.3463 5.45627 19.2461 5.70056 19.0456 5.8977C18.8452 6.09485 18.5968 6.19342 18.3005 6.19342H17.9557V16.5888C17.9557 17.3343 17.6792 17.9803 17.1262 18.5267C16.5732 19.0731 15.8978 19.3463 15.1001 19.3463C14.3205 19.3463 13.6484 19.0731 13.084 18.5267C12.5196 17.9803 12.2374 17.3343 12.2374 16.5888V11.3364C12.2374 11.1759 12.1892 11.0482 12.0928 10.9534C11.9964 10.8585 11.8666 10.8111 11.7034 10.8111H10.4129V18.3177C10.4129 18.6091 10.3131 18.8534 10.1135 19.0505C9.91395 19.2477 9.66665 19.3463 9.37161 19.3463ZM4.71697 17.1359L7.1867 13.0215H5.70707V9.88106L3.22624 13.9954H4.71697V17.1359Z" fill="#118615"/>
</svg>
