<svg xmlns="http://www.w3.org/2000/svg" viewBox="0 0 24 24" id="google-search"><g data-name="Layer 2"><g data-name="Layer 3"><path fill="none" d="M0 0h24v24H0z"></path><path fill="#fff" d="M1 12C1 4 4 1 12 1s11 3 11 11-3 11-11 11S1 20 1 12"></path><path fill="#ea4335" d="M10.84 7.65a5.24 5.24 0 0 1 4.35.83c.65-.6 1.26-1.24 1.86-1.88a7.46 7.46 0 0 0-5.28-1.78 7.29 7.29 0 0 0-6.19 3.91l2.25 1.82a4.57 4.57 0 0 1 3.01-2.9Z"></path><path fill="#fab908" d="M7.84 13.46a4.22 4.22 0 0 1 0-2.91L5.58 8.73A6.57 6.57 0 0 0 4.8 12a6.67 6.67 0 0 0 .81 3.28l2.25-1.77a.14.14 0 0 0-.02-.05Z"></path><path fill="#34a853" d="m7.86 13.52-2.25 1.77a7.23 7.23 0 0 0 4.15 3.52 7.54 7.54 0 0 0 7.13-1.25l-2.12-1.77a3.18 3.18 0 0 1-.8.41 4.65 4.65 0 0 1-6.11-2.68Z"></path><path fill="#0066d9" d="M17.68 16.75A8 8 0 0 0 19.17 11h-7v2.45c1.41 0 2.81 0 4.21.05a4.34 4.34 0 0 1-1.58 2.31l2.12 1.77a5.51 5.51 0 0 0 .76-.83Z"></path></g></g></svg>